<svg xmlns="http://www.w3.org/2000/svg" width="920" height="620" viewBox="0 0 920 620">
<rect width="920" height="620" fill="#fcfbf7"/>
<text x="90.0" y="32.0" font-size="20" font-family="Helvetica, Arial, sans-serif" font-weight="bold" text-anchor="start" fill="#1f1f1f">Five-layer matched activation-patching profile</text>
<text x="90.0" y="54.0" font-size="12" font-family="Helvetica, Arial, sans-serif" font-weight="normal" text-anchor="start" fill="#78716c">Gemma 3 4B / Gemma Scope 16k / DISAMB source comparability run</text>
<line x1="90.0" y1="273.0" x2="870.0" y2="273.0" stroke="#d6d3d1" stroke-width="1"/>
<text x="80.0" y="277.0" font-size="11" font-family="Helvetica, Arial, sans-serif" font-weight="normal" text-anchor="end" fill="#78716c">0.12</text>
<line x1="90.0" y1="226.8" x2="870.0" y2="226.8" stroke="#d6d3d1" stroke-width="1"/>
<text x="80.0" y="230.8" font-size="11" font-family="Helvetica, Arial, sans-serif" font-weight="normal" text-anchor="end" fill="#78716c">0.45</text>
<line x1="90.0" y1="180.5" x2="870.0" y2="180.5" stroke="#d6d3d1" stroke-width="1"/>
<text x="80.0" y="184.5" font-size="11" font-family="Helvetica, Arial, sans-serif" font-weight="normal" text-anchor="end" fill="#78716c">0.79</text>
<line x1="90.0" y1="134.2" x2="870.0" y2="134.2" stroke="#d6d3d1" stroke-width="1"/>
<text x="80.0" y="138.2" font-size="11" font-family="Helvetica, Arial, sans-serif" font-weight="normal" text-anchor="end" fill="#78716c">1.13</text>
<line x1="90.0" y1="88.0" x2="870.0" y2="88.0" stroke="#d6d3d1" stroke-width="1"/>
<text x="80.0" y="92.0" font-size="11" font-family="Helvetica, Arial, sans-serif" font-weight="normal" text-anchor="end" fill="#78716c">1.47</text>
<line x1="90.0" y1="152.0" x2="870.0" y2="152.0" stroke="#44403c" stroke-width="1.2" stroke-dasharray="7 6"/>
<text x="878.0" y="156.0" font-size="11" font-family="Helvetica, Arial, sans-serif" font-weight="normal" text-anchor="start" fill="#78716c">CRR = 1</text>
<line x1="90.0" y1="88.0" x2="90.0" y2="273.0" stroke="#44403c" stroke-width="1.2"/>
<line x1="90.0" y1="273.0" x2="870.0" y2="273.0" stroke="#44403c" stroke-width="1.2"/>
<text x="90.0" y="76.0" font-size="14" font-family="Helvetica, Arial, sans-serif" font-weight="bold" text-anchor="start" fill="#1f1f1f">Causal recovery ratio by layer</text>
<text x="934.0" y="180.5" font-size="12" font-family="Helvetica, Arial, sans-serif" font-weight="normal" text-anchor="middle" fill="#1f1f1f">CRR</text>
<line x1="90.0" y1="252.8" x2="90.0" y2="158.3" stroke="#0f766e" stroke-width="2.2"/>
<line x1="83.0" y1="252.8" x2="97.0" y2="252.8" stroke="#0f766e" stroke-width="2.2"/>
<line x1="83.0" y1="158.3" x2="97.0" y2="158.3" stroke="#0f766e" stroke-width="2.2"/>
<circle cx="90.0" cy="203.9" r="6" fill="#0f766e" stroke="#ffffff" stroke-width="1.5"/>
<text x="90.0" y="191.9" font-size="11" font-family="Helvetica, Arial, sans-serif" font-weight="bold" text-anchor="middle" fill="#0f766e">0.62</text>
<line x1="285.0" y1="203.1" x2="285.0" y2="114.4" stroke="#0f766e" stroke-width="2.2"/>
<line x1="278.0" y1="203.1" x2="292.0" y2="203.1" stroke="#0f766e" stroke-width="2.2"/>
<line x1="278.0" y1="114.4" x2="292.0" y2="114.4" stroke="#0f766e" stroke-width="2.2"/>
<circle cx="285.0" cy="164.6" r="6" fill="#0f766e" stroke="#ffffff" stroke-width="1.5"/>
<text x="285.0" y="152.6" font-size="11" font-family="Helvetica, Arial, sans-serif" font-weight="bold" text-anchor="middle" fill="#0f766e">0.91</text>
<line x1="480.0" y1="186.4" x2="480.0" y2="108.2" stroke="#0f766e" stroke-width="2.2"/>
<line x1="473.0" y1="186.4" x2="487.0" y2="186.4" stroke="#0f766e" stroke-width="2.2"/>
<line x1="473.0" y1="108.2" x2="487.0" y2="108.2" stroke="#0f766e" stroke-width="2.2"/>
<circle cx="480.0" cy="155.5" r="6" fill="#0f766e" stroke="#ffffff" stroke-width="1.5"/>
<text x="480.0" y="143.5" font-size="11" font-family="Helvetica, Arial, sans-serif" font-weight="bold" text-anchor="middle" fill="#0f766e">0.97</text>
<line x1="675.0" y1="249.8" x2="675.0" y2="176.1" stroke="#0f766e" stroke-width="2.2"/>
<line x1="668.0" y1="249.8" x2="682.0" y2="249.8" stroke="#0f766e" stroke-width="2.2"/>
<line x1="668.0" y1="176.1" x2="682.0" y2="176.1" stroke="#0f766e" stroke-width="2.2"/>
<circle cx="675.0" cy="209.9" r="6" fill="#0f766e" stroke="#ffffff" stroke-width="1.5"/>
<text x="675.0" y="197.9" font-size="11" font-family="Helvetica, Arial, sans-serif" font-weight="bold" text-anchor="middle" fill="#0f766e">0.58</text>
<line x1="870.0" y1="244.3" x2="870.0" y2="160.3" stroke="#0f766e" stroke-width="2.2"/>
<line x1="863.0" y1="244.3" x2="877.0" y2="244.3" stroke="#0f766e" stroke-width="2.2"/>
<line x1="863.0" y1="160.3" x2="877.0" y2="160.3" stroke="#0f766e" stroke-width="2.2"/>
<circle cx="870.0" cy="202.4" r="6" fill="#0f766e" stroke="#ffffff" stroke-width="1.5"/>
<text x="870.0" y="190.4" font-size="11" font-family="Helvetica, Arial, sans-serif" font-weight="bold" text-anchor="middle" fill="#0f766e">0.63</text>
<polyline fill="none" stroke="#0f766e" stroke-width="3" points="90.0,203.9 285.0,164.6 480.0,155.5 675.0,209.9 870.0,202.4"/>
<line x1="90.0" y1="529.0" x2="870.0" y2="529.0" stroke="#d6d3d1" stroke-width="1"/>
<text x="80.0" y="533.0" font-size="11" font-family="Helvetica, Arial, sans-serif" font-weight="normal" text-anchor="end" fill="#78716c">-0.19</text>
<line x1="90.0" y1="482.8" x2="870.0" y2="482.8" stroke="#d6d3d1" stroke-width="1"/>
<text x="80.0" y="486.8" font-size="11" font-family="Helvetica, Arial, sans-serif" font-weight="normal" text-anchor="end" fill="#78716c">0.24</text>
<line x1="90.0" y1="436.5" x2="870.0" y2="436.5" stroke="#d6d3d1" stroke-width="1"/>
<text x="80.0" y="440.5" font-size="11" font-family="Helvetica, Arial, sans-serif" font-weight="normal" text-anchor="end" fill="#78716c">0.67</text>
<line x1="90.0" y1="390.2" x2="870.0" y2="390.2" stroke="#d6d3d1" stroke-width="1"/>
<text x="80.0" y="394.2" font-size="11" font-family="Helvetica, Arial, sans-serif" font-weight="normal" text-anchor="end" fill="#78716c">1.10</text>
<line x1="90.0" y1="344.0" x2="870.0" y2="344.0" stroke="#d6d3d1" stroke-width="1"/>
<text x="80.0" y="348.0" font-size="11" font-family="Helvetica, Arial, sans-serif" font-weight="normal" text-anchor="end" fill="#78716c">1.52</text>
<line x1="90.0" y1="508.8" x2="870.0" y2="508.8" stroke="#44403c" stroke-width="1.2" stroke-dasharray="7 6"/>
<line x1="90.0" y1="344.0" x2="90.0" y2="529.0" stroke="#44403c" stroke-width="1.2"/>
<line x1="90.0" y1="529.0" x2="870.0" y2="529.0" stroke="#44403c" stroke-width="1.2"/>
<text x="90.0" y="332.0" font-size="14" font-family="Helvetica, Arial, sans-serif" font-weight="bold" text-anchor="start" fill="#1f1f1f">Raw versus SAE donor-directed effect</text>
<text x="944.0" y="436.5" font-size="12" font-family="Helvetica, Arial, sans-serif" font-weight="normal" text-anchor="middle" fill="#1f1f1f">Effect</text>
<line x1="72.0" y1="420.6" x2="108.0" y2="454.0" stroke="#a8a29e" stroke-width="1.5"/>
<line x1="72.0" y1="463.0" x2="72.0" y2="377.1" stroke="#1d4ed8" stroke-width="2"/>
<line x1="65.0" y1="463.0" x2="79.0" y2="463.0" stroke="#1d4ed8" stroke-width="2"/>
<line x1="65.0" y1="377.1" x2="79.0" y2="377.1" stroke="#1d4ed8" stroke-width="2"/>
<circle cx="72.0" cy="420.6" r="5.5" fill="#1d4ed8" stroke="#ffffff" stroke-width="1.3"/>
<line x1="108.0" y1="492.0" x2="108.0" y2="417.2" stroke="#dc2626" stroke-width="2"/>
<line x1="101.0" y1="492.0" x2="115.0" y2="492.0" stroke="#dc2626" stroke-width="2"/>
<line x1="101.0" y1="417.2" x2="115.0" y2="417.2" stroke="#dc2626" stroke-width="2"/>
<rect x="102.5" y="448.5" width="11" height="11" fill="#dc2626" stroke="#ffffff" stroke-width="1.3"/>
<text x="90.0" y="557.0" font-size="12" font-family="Helvetica, Arial, sans-serif" font-weight="bold" text-anchor="middle" fill="#1f1f1f">L4</text>
<line x1="267.0" y1="427.9" x2="303.0" y2="435.4" stroke="#a8a29e" stroke-width="1.5"/>
<line x1="267.0" y1="473.0" x2="267.0" y2="381.0" stroke="#1d4ed8" stroke-width="2"/>
<line x1="260.0" y1="473.0" x2="274.0" y2="473.0" stroke="#1d4ed8" stroke-width="2"/>
<line x1="260.0" y1="381.0" x2="274.0" y2="381.0" stroke="#1d4ed8" stroke-width="2"/>
<circle cx="267.0" cy="427.9" r="5.5" fill="#1d4ed8" stroke="#ffffff" stroke-width="1.3"/>
<line x1="303.0" y1="476.8" x2="303.0" y2="390.0" stroke="#dc2626" stroke-width="2"/>
<line x1="296.0" y1="476.8" x2="310.0" y2="476.8" stroke="#dc2626" stroke-width="2"/>
<line x1="296.0" y1="390.0" x2="310.0" y2="390.0" stroke="#dc2626" stroke-width="2"/>
<rect x="297.5" y="429.9" width="11" height="11" fill="#dc2626" stroke="#ffffff" stroke-width="1.3"/>
<text x="285.0" y="557.0" font-size="12" font-family="Helvetica, Arial, sans-serif" font-weight="bold" text-anchor="middle" fill="#1f1f1f">L5</text>
<line x1="462.0" y1="408.0" x2="498.0" y2="410.6" stroke="#a8a29e" stroke-width="1.5"/>
<line x1="462.0" y1="449.5" x2="462.0" y2="364.2" stroke="#1d4ed8" stroke-width="2"/>
<line x1="455.0" y1="449.5" x2="469.0" y2="449.5" stroke="#1d4ed8" stroke-width="2"/>
<line x1="455.0" y1="364.2" x2="469.0" y2="364.2" stroke="#1d4ed8" stroke-width="2"/>
<circle cx="462.0" cy="408.0" r="5.5" fill="#1d4ed8" stroke="#ffffff" stroke-width="1.3"/>
<line x1="498.0" y1="445.4" x2="498.0" y2="372.3" stroke="#dc2626" stroke-width="2"/>
<line x1="491.0" y1="445.4" x2="505.0" y2="445.4" stroke="#dc2626" stroke-width="2"/>
<line x1="491.0" y1="372.3" x2="505.0" y2="372.3" stroke="#dc2626" stroke-width="2"/>
<rect x="492.5" y="405.1" width="11" height="11" fill="#dc2626" stroke="#ffffff" stroke-width="1.3"/>
<text x="480.0" y="557.0" font-size="12" font-family="Helvetica, Arial, sans-serif" font-weight="bold" text-anchor="middle" fill="#1f1f1f">L8</text>
<line x1="657.0" y1="432.3" x2="693.0" y2="464.7" stroke="#a8a29e" stroke-width="1.5"/>
<line x1="657.0" y1="467.2" x2="657.0" y2="394.6" stroke="#1d4ed8" stroke-width="2"/>
<line x1="650.0" y1="467.2" x2="664.0" y2="467.2" stroke="#1d4ed8" stroke-width="2"/>
<line x1="650.0" y1="394.6" x2="664.0" y2="394.6" stroke="#1d4ed8" stroke-width="2"/>
<circle cx="657.0" cy="432.3" r="5.5" fill="#1d4ed8" stroke="#ffffff" stroke-width="1.3"/>
<line x1="693.0" y1="494.4" x2="693.0" y2="432.0" stroke="#dc2626" stroke-width="2"/>
<line x1="686.0" y1="494.4" x2="700.0" y2="494.4" stroke="#dc2626" stroke-width="2"/>
<line x1="686.0" y1="432.0" x2="700.0" y2="432.0" stroke="#dc2626" stroke-width="2"/>
<rect x="687.5" y="459.2" width="11" height="11" fill="#dc2626" stroke="#ffffff" stroke-width="1.3"/>
<text x="675.0" y="557.0" font-size="12" font-family="Helvetica, Arial, sans-serif" font-weight="bold" text-anchor="middle" fill="#1f1f1f">L11</text>
<line x1="852.0" y1="449.0" x2="888.0" y2="471.0" stroke="#a8a29e" stroke-width="1.5"/>
<line x1="852.0" y1="475.3" x2="852.0" y2="421.4" stroke="#1d4ed8" stroke-width="2"/>
<line x1="845.0" y1="475.3" x2="859.0" y2="475.3" stroke="#1d4ed8" stroke-width="2"/>
<line x1="845.0" y1="421.4" x2="859.0" y2="421.4" stroke="#1d4ed8" stroke-width="2"/>
<circle cx="852.0" cy="449.0" r="5.5" fill="#1d4ed8" stroke="#ffffff" stroke-width="1.3"/>
<line x1="888.0" y1="492.9" x2="888.0" y2="446.4" stroke="#dc2626" stroke-width="2"/>
<line x1="881.0" y1="492.9" x2="895.0" y2="492.9" stroke="#dc2626" stroke-width="2"/>
<line x1="881.0" y1="446.4" x2="895.0" y2="446.4" stroke="#dc2626" stroke-width="2"/>
<rect x="882.5" y="465.5" width="11" height="11" fill="#dc2626" stroke="#ffffff" stroke-width="1.3"/>
<text x="870.0" y="557.0" font-size="12" font-family="Helvetica, Arial, sans-serif" font-weight="bold" text-anchor="middle" fill="#1f1f1f">L16</text>
<polyline fill="none" stroke="#1d4ed8" stroke-width="2.4" points="72.0,420.6 267.0,427.9 462.0,408.0 657.0,432.3 852.0,449.0"/>
<polyline fill="none" stroke="#dc2626" stroke-width="2.4" points="108.0,454.0 303.0,435.4 498.0,410.6 693.0,464.7 888.0,471.0"/>
<line x1="90.0" y1="568.0" x2="116.0" y2="568.0" stroke="#0f766e" stroke-width="3"/>
<circle cx="103.0" cy="568.0" r="5" fill="#0f766e" stroke="#ffffff" stroke-width="1.2"/>
<text x="126.0" y="572.0" font-size="11" font-family="Helvetica, Arial, sans-serif" font-weight="normal" text-anchor="start" fill="#1f1f1f">CRR</text>
<line x1="200.0" y1="568.0" x2="226.0" y2="568.0" stroke="#1d4ed8" stroke-width="2.4"/>
<circle cx="213.0" cy="568.0" r="5" fill="#1d4ed8" stroke="#ffffff" stroke-width="1.2"/>
<text x="236.0" y="572.0" font-size="11" font-family="Helvetica, Arial, sans-serif" font-weight="normal" text-anchor="start" fill="#1f1f1f">Raw effect</text>
<line x1="360.0" y1="568.0" x2="386.0" y2="568.0" stroke="#dc2626" stroke-width="2.4"/>
<rect x="374.0" y="563.0" width="10" height="10" fill="#dc2626" stroke="#ffffff" stroke-width="1.2"/>
<text x="398.0" y="572.0" font-size="11" font-family="Helvetica, Arial, sans-serif" font-weight="normal" text-anchor="start" fill="#1f1f1f">SAE effect</text>
<text x="90.0" y="596.0" font-size="10" font-family="Helvetica, Arial, sans-serif" font-weight="normal" text-anchor="start" fill="#78716c">Source: /tmp/sae_limitation_cpu_fvu_v2/source/comparability/gemma3_4b_comparability.summary.json</text>
<text x="870.0" y="596.0" font-size="10" font-family="Helvetica, Arial, sans-serif" font-weight="normal" text-anchor="end" fill="#78716c">Draft-only profile until promoted into a governed release surface.</text>
</svg>
