<svg xmlns="http://www.w3.org/2000/svg" width="1800" height="980" viewBox="0 0 1800 980">
<rect width="100%" height="100%" fill="#ffffff"/>
<text x="900.0" y="64.0" font-size="54" font-family="Helvetica, Arial, sans-serif" font-weight="700" text-anchor="middle" fill="#111827">Strong Geometric Diagnostics, Different Recovery</text>
<text x="900.0" y="118.0" font-size="26" font-family="Helvetica, Arial, sans-serif" font-weight="normal" text-anchor="middle" fill="#6b7280">Gemma 3 4B · Gemma Scope 16k JumpReLU SAE · n = 52 pairs · 95% CI (pair-cluster bootstrap)</text>
<rect x="80.0" y="190.0" width="700.0" height="500.0" fill="#fcf7f5" stroke="#d1d5db" stroke-width="2"/>
<text x="430.0" y="158.0" font-size="25" font-family="Menlo, Consolas, Monaco, monospace" font-weight="500" text-anchor="middle" fill="#111827">L4   cosine=0.997   relMSE=0.007</text>
<text x="430.0" y="186.0" font-size="21" font-family="Menlo, Consolas, Monaco, monospace" font-weight="500" text-anchor="middle" fill="#4b5563">FVU=0.137</text>
<line x1="168.0" y1="294.0" x2="168.0" y2="616.0" stroke="#d9dde5" stroke-width="1"/>
<line x1="168.0" y1="616.0" x2="168.0" y2="626.0" stroke="#6b7280" stroke-width="1.5"/>
<text x="168.0" y="658.0" font-size="18" font-family="Helvetica, Arial, sans-serif" font-weight="normal" text-anchor="middle" fill="#6b7280">0</text>
<line x1="264.0" y1="294.0" x2="264.0" y2="616.0" stroke="#d9dde5" stroke-width="1"/>
<line x1="264.0" y1="616.0" x2="264.0" y2="626.0" stroke="#6b7280" stroke-width="1.5"/>
<text x="264.0" y="658.0" font-size="18" font-family="Helvetica, Arial, sans-serif" font-weight="normal" text-anchor="middle" fill="#6b7280">0.25</text>
<line x1="360.0" y1="294.0" x2="360.0" y2="616.0" stroke="#d9dde5" stroke-width="1"/>
<line x1="360.0" y1="616.0" x2="360.0" y2="626.0" stroke="#6b7280" stroke-width="1.5"/>
<text x="360.0" y="658.0" font-size="18" font-family="Helvetica, Arial, sans-serif" font-weight="normal" text-anchor="middle" fill="#6b7280">0.50</text>
<line x1="456.0" y1="294.0" x2="456.0" y2="616.0" stroke="#d9dde5" stroke-width="1"/>
<line x1="456.0" y1="616.0" x2="456.0" y2="626.0" stroke="#6b7280" stroke-width="1.5"/>
<text x="456.0" y="658.0" font-size="18" font-family="Helvetica, Arial, sans-serif" font-weight="normal" text-anchor="middle" fill="#6b7280">0.75</text>
<line x1="552.0" y1="294.0" x2="552.0" y2="616.0" stroke="#d9dde5" stroke-width="1"/>
<line x1="552.0" y1="616.0" x2="552.0" y2="626.0" stroke="#6b7280" stroke-width="1.5"/>
<text x="552.0" y="658.0" font-size="18" font-family="Helvetica, Arial, sans-serif" font-weight="normal" text-anchor="middle" fill="#6b7280">1.00</text>
<line x1="648.0" y1="294.0" x2="648.0" y2="616.0" stroke="#d9dde5" stroke-width="1"/>
<line x1="648.0" y1="616.0" x2="648.0" y2="626.0" stroke="#6b7280" stroke-width="1.5"/>
<text x="648.0" y="658.0" font-size="18" font-family="Helvetica, Arial, sans-serif" font-weight="normal" text-anchor="middle" fill="#6b7280">1.25</text>
<line x1="744.0" y1="294.0" x2="744.0" y2="616.0" stroke="#d9dde5" stroke-width="1"/>
<line x1="744.0" y1="616.0" x2="744.0" y2="626.0" stroke="#6b7280" stroke-width="1.5"/>
<text x="744.0" y="658.0" font-size="18" font-family="Helvetica, Arial, sans-serif" font-weight="normal" text-anchor="middle" fill="#6b7280">1.50</text>
<line x1="168.0" y1="616.0" x2="744.0" y2="616.0" stroke="#6b7280" stroke-width="1.5"/>
<line x1="481.1" y1="330.0" x2="481.1" y2="616.0" stroke="#b8c7e6" stroke-width="2" stroke-dasharray="10 10" stroke-opacity="0.9"/>
<text x="156.0" y="431.0" font-size="24" font-family="Helvetica, Arial, sans-serif" font-weight="normal" text-anchor="end" fill="#52679a" font-style="italic">Raw</text>
<text x="156.0" y="571.0" font-size="24" font-family="Helvetica, Arial, sans-serif" font-weight="normal" text-anchor="end" fill="#b45436" font-style="italic">SAE</text>
<rect x="168.0" y="384.0" width="313.1" height="74.0" fill="#52679a"/>
<rect x="168.0" y="524.0" width="194.4" height="74.0" fill="#b45436"/>
<line x1="330.5" y1="421.0" x2="635.5" y2="421.0" stroke="#3f5689" stroke-width="4"/>
<line x1="330.5" y1="407.0" x2="330.5" y2="435.0" stroke="#3f5689" stroke-width="4"/>
<line x1="635.5" y1="407.0" x2="635.5" y2="435.0" stroke="#3f5689" stroke-width="4"/>
<line x1="227.7" y1="561.0" x2="493.0" y2="561.0" stroke="#a0452b" stroke-width="4"/>
<line x1="227.7" y1="547.0" x2="227.7" y2="575.0" stroke="#a0452b" stroke-width="4"/>
<line x1="493.0" y1="547.0" x2="493.0" y2="575.0" stroke="#a0452b" stroke-width="4"/>
<rect x="499.1" y="342.0" width="83.0" height="34.0" rx="8" ry="8" fill="#ffffff" stroke="#cfd8e8" stroke-width="1.5"/>
<text x="540.6" y="366.0" font-size="24" font-family="Helvetica, Arial, sans-serif" font-weight="700" text-anchor="middle" fill="#31456d">0.815</text>
<rect x="380.4" y="482.0" width="83.0" height="34.0" rx="8" ry="8" fill="#ffffff" stroke="#ecc2b4" stroke-width="1.5"/>
<text x="421.9" y="506.0" font-size="24" font-family="Helvetica, Arial, sans-serif" font-weight="700" text-anchor="middle" fill="#9f432a">0.506</text>
<text x="430.0" y="756.0" font-size="34" font-family="Helvetica, Arial, sans-serif" font-weight="700" text-anchor="middle" fill="#E69F00">CRR = 0.621</text>
<text x="430.0" y="802.0" font-size="18" font-family="Helvetica, Arial, sans-serif" font-weight="normal" text-anchor="middle" fill="#E69F00" font-style="italic">under-recovery</text>
<rect x="1020.0" y="190.0" width="700.0" height="500.0" fill="#f6fbf7" stroke="#d1d5db" stroke-width="2"/>
<text x="1370.0" y="158.0" font-size="25" font-family="Menlo, Consolas, Monaco, monospace" font-weight="500" text-anchor="middle" fill="#111827">L8   cosine=0.998   relMSE=0.007</text>
<text x="1370.0" y="186.0" font-size="21" font-family="Menlo, Consolas, Monaco, monospace" font-weight="500" text-anchor="middle" fill="#4b5563">FVU=0.060</text>
<line x1="1108.0" y1="294.0" x2="1108.0" y2="616.0" stroke="#d9dde5" stroke-width="1"/>
<line x1="1108.0" y1="616.0" x2="1108.0" y2="626.0" stroke="#6b7280" stroke-width="1.5"/>
<text x="1108.0" y="658.0" font-size="18" font-family="Helvetica, Arial, sans-serif" font-weight="normal" text-anchor="middle" fill="#6b7280">0</text>
<line x1="1204.0" y1="294.0" x2="1204.0" y2="616.0" stroke="#d9dde5" stroke-width="1"/>
<line x1="1204.0" y1="616.0" x2="1204.0" y2="626.0" stroke="#6b7280" stroke-width="1.5"/>
<text x="1204.0" y="658.0" font-size="18" font-family="Helvetica, Arial, sans-serif" font-weight="normal" text-anchor="middle" fill="#6b7280">0.25</text>
<line x1="1300.0" y1="294.0" x2="1300.0" y2="616.0" stroke="#d9dde5" stroke-width="1"/>
<line x1="1300.0" y1="616.0" x2="1300.0" y2="626.0" stroke="#6b7280" stroke-width="1.5"/>
<text x="1300.0" y="658.0" font-size="18" font-family="Helvetica, Arial, sans-serif" font-weight="normal" text-anchor="middle" fill="#6b7280">0.50</text>
<line x1="1396.0" y1="294.0" x2="1396.0" y2="616.0" stroke="#d9dde5" stroke-width="1"/>
<line x1="1396.0" y1="616.0" x2="1396.0" y2="626.0" stroke="#6b7280" stroke-width="1.5"/>
<text x="1396.0" y="658.0" font-size="18" font-family="Helvetica, Arial, sans-serif" font-weight="normal" text-anchor="middle" fill="#6b7280">0.75</text>
<line x1="1492.0" y1="294.0" x2="1492.0" y2="616.0" stroke="#d9dde5" stroke-width="1"/>
<line x1="1492.0" y1="616.0" x2="1492.0" y2="626.0" stroke="#6b7280" stroke-width="1.5"/>
<text x="1492.0" y="658.0" font-size="18" font-family="Helvetica, Arial, sans-serif" font-weight="normal" text-anchor="middle" fill="#6b7280">1.00</text>
<line x1="1588.0" y1="294.0" x2="1588.0" y2="616.0" stroke="#d9dde5" stroke-width="1"/>
<line x1="1588.0" y1="616.0" x2="1588.0" y2="626.0" stroke="#6b7280" stroke-width="1.5"/>
<text x="1588.0" y="658.0" font-size="18" font-family="Helvetica, Arial, sans-serif" font-weight="normal" text-anchor="middle" fill="#6b7280">1.25</text>
<line x1="1684.0" y1="294.0" x2="1684.0" y2="616.0" stroke="#d9dde5" stroke-width="1"/>
<line x1="1684.0" y1="616.0" x2="1684.0" y2="626.0" stroke="#6b7280" stroke-width="1.5"/>
<text x="1684.0" y="658.0" font-size="18" font-family="Helvetica, Arial, sans-serif" font-weight="normal" text-anchor="middle" fill="#6b7280">1.50</text>
<line x1="1108.0" y1="616.0" x2="1684.0" y2="616.0" stroke="#6b7280" stroke-width="1.5"/>
<line x1="1465.7" y1="330.0" x2="1465.7" y2="616.0" stroke="#b8c7e6" stroke-width="2" stroke-dasharray="10 10" stroke-opacity="0.9"/>
<text x="1096.0" y="431.0" font-size="24" font-family="Helvetica, Arial, sans-serif" font-weight="normal" text-anchor="end" fill="#52679a" font-style="italic">Raw</text>
<text x="1096.0" y="571.0" font-size="24" font-family="Helvetica, Arial, sans-serif" font-weight="normal" text-anchor="end" fill="#b45436" font-style="italic">SAE</text>
<rect x="1108.0" y="384.0" width="357.7" height="74.0" fill="#52679a"/>
<rect x="1108.0" y="524.0" width="348.5" height="74.0" fill="#b45436"/>
<line x1="1318.5" y1="421.0" x2="1621.1" y2="421.0" stroke="#3f5689" stroke-width="4"/>
<line x1="1318.5" y1="407.0" x2="1318.5" y2="435.0" stroke="#3f5689" stroke-width="4"/>
<line x1="1621.1" y1="407.0" x2="1621.1" y2="435.0" stroke="#3f5689" stroke-width="4"/>
<line x1="1332.9" y1="561.0" x2="1592.5" y2="561.0" stroke="#a0452b" stroke-width="4"/>
<line x1="1332.9" y1="547.0" x2="1332.9" y2="575.0" stroke="#a0452b" stroke-width="4"/>
<line x1="1592.5" y1="547.0" x2="1592.5" y2="575.0" stroke="#a0452b" stroke-width="4"/>
<rect x="1483.7" y="342.0" width="83.0" height="34.0" rx="8" ry="8" fill="#ffffff" stroke="#cfd8e8" stroke-width="1.5"/>
<text x="1525.2" y="366.0" font-size="24" font-family="Helvetica, Arial, sans-serif" font-weight="700" text-anchor="middle" fill="#31456d">0.931</text>
<rect x="1474.5" y="482.0" width="83.0" height="34.0" rx="8" ry="8" fill="#ffffff" stroke="#ecc2b4" stroke-width="1.5"/>
<text x="1516.0" y="506.0" font-size="24" font-family="Helvetica, Arial, sans-serif" font-weight="700" text-anchor="middle" fill="#9f432a">0.907</text>
<text x="1370.0" y="756.0" font-size="34" font-family="Helvetica, Arial, sans-serif" font-weight="700" text-anchor="middle" fill="#005A8B">CRR = 0.974</text>
<text x="1370.0" y="802.0" font-size="18" font-family="Helvetica, Arial, sans-serif" font-weight="normal" text-anchor="middle" fill="#005A8B" font-style="italic">high recovery</text>
</svg>
