<svg xmlns="http://www.w3.org/2000/svg" width="720" height="420" viewBox="0 0 720 420">
<rect width="100%" height="100%" fill="#ffffff"/>
<line x1="80" y1="40" x2="80" y2="320" stroke="#222222" stroke-width="1"/>
<line x1="80" y1="320" x2="660" y2="320" stroke="#222222" stroke-width="1"/>
<line x1="80" y1="305.4" x2="660" y2="305.4" stroke="#aaaaaa" stroke-width="1" stroke-dasharray="4 4"/>
<text x="80.0" y="24.0" font-size="16" font-family="monospace" font-weight="bold">Compact top-k versus full SAE effect</text>
<text x="74.0" y="348.0" font-size="12" font-family="monospace" font-weight="bold">20</text>
<text x="364.0" y="348.0" font-size="12" font-family="monospace" font-weight="bold">50</text>
<text x="654.0" y="348.0" font-size="12" font-family="monospace" font-weight="bold">100</text>
<circle cx="80.0" cy="275.6" r="5" fill="#8c564b"/>
<circle cx="370.0" cy="279.1" r="5" fill="#8c564b"/>
<circle cx="660.0" cy="251.0" r="5" fill="#8c564b"/>
<polyline fill="none" stroke="#8c564b" stroke-width="2" points="80.0,275.6 370.0,279.1 660.0,251.0"/>
<line x1="80" y1="210.5" x2="660" y2="210.5" stroke="#8c564b" stroke-width="1.5" stroke-dasharray="6 4"/>
<circle cx="80.0" cy="255.8" r="5" fill="#9467bd"/>
<circle cx="370.0" cy="240.0" r="5" fill="#9467bd"/>
<circle cx="660.0" cy="223.8" r="5" fill="#9467bd"/>
<polyline fill="none" stroke="#9467bd" stroke-width="2" points="80.0,255.8 370.0,240.0 660.0,223.8"/>
<line x1="80" y1="131.7" x2="660" y2="131.7" stroke="#9467bd" stroke-width="1.5" stroke-dasharray="6 4"/>
<rect x="80.0" y="368.0" width="14" height="14" fill="#8c564b"/>
<text x="102.0" y="380.0" font-size="11" font-family="monospace" font-weight="normal">L4 compact-k; dashed = full</text>
<rect x="240.0" y="368.0" width="14" height="14" fill="#9467bd"/>
<text x="262.0" y="380.0" font-size="11" font-family="monospace" font-weight="normal">L8 compact-k; dashed = full</text>
</svg>
